<mxfile host="app.diagrams.net" modified="2023-06-08T08:07:46.081Z" agent="Mozilla/5.0 (Windows NT 10.0; Win64; x64) AppleWebKit/537.36 (KHTML, like Gecko) Chrome/98.0.4758.81 Safari/537.36" version="21.3.7" etag="pT3lbZDkSjl_BCay7_bw" type="github">
  <diagram name="第 1 页" id="kxanXHv6lnJjZJkxTb9y">
    <mxGraphModel>
      <root>
        <mxCell id="0" />
        <mxCell id="1" parent="0" />
      </root>
    </mxGraphModel>
  </diagram>
</mxfile>
